<svg width="48" height="48" viewBox="0 0 48 48" fill="none" xmlns="http://www.w3.org/2000/svg">
<path d="M15.1275 34.8668H27.5733L26.5362 47.9985H14.0541C12.1174 48.0252 10.196 47.6966 8.41398 47.0338C6.632 46.3711 5.02923 45.389 3.7094 44.1512C2.38958 42.9133 1.3821 41.4473 0.752168 39.848C0.122238 38.2487 -0.116106 36.5517 0.0525598 34.8668L1.57717 16.3014H16.6158L15.1275 34.8668ZM48 0H17.9227C13.8475 0.0235352 9.93462 1.39765 6.97554 3.84441C3.98053 6.2627 2.14299 9.58012 1.83127 13.1317H31.9086C35.9801 13.0806 39.8839 11.7073 42.8588 9.27953C45.8337 6.85179 47.6666 3.54361 48 0V0ZM32.1109 23.5464L31.276 33.9974L30.1299 47.9985H44.1314L45.1115 35.7725C45.2674 34.2066 45.0459 32.6295 44.4612 31.143C43.8765 29.6564 42.9416 28.2933 41.7168 27.1415C40.492 25.9897 39.0044 25.0747 37.35 24.4555C35.6955 23.8363 33.9108 23.5266 32.1109 23.5464V23.5464Z" fill="#28293D"/>
</svg>
