<svg width="40" height="40" viewBox="0 0 40 40" fill="none" xmlns="http://www.w3.org/2000/svg">
<circle cx="20" cy="20" r="20" fill="#D6FDD1"/>
<path d="M20 10.25C14.6239 10.25 10.25 14.6239 10.25 20C10.25 25.3761 14.6239 29.75 20 29.75C25.3761 29.75 29.75 25.3761 29.75 20C29.75 14.6239 25.3761 10.25 20 10.25ZM25.0742 16.7323L18.7742 24.2323C18.7051 24.3147 18.6191 24.3812 18.5221 24.4273C18.425 24.4735 18.3192 24.4983 18.2117 24.5H18.1991C18.0939 24.5 17.99 24.4778 17.894 24.435C17.798 24.3922 17.712 24.3297 17.6417 24.2516L14.9417 21.2516C14.8731 21.1788 14.8198 21.0931 14.7848 20.9995C14.7499 20.9059 14.734 20.8062 14.738 20.7063C14.7421 20.6064 14.7662 20.5084 14.8087 20.4179C14.8512 20.3275 14.9114 20.2464 14.9857 20.1796C15.06 20.1127 15.1469 20.0614 15.2414 20.0286C15.3358 19.9958 15.4358 19.9822 15.5356 19.9886C15.6353 19.995 15.7328 20.0213 15.8222 20.0659C15.9117 20.1106 15.9913 20.1726 16.0564 20.2484L18.1794 22.6072L23.9258 15.7677C24.0547 15.6186 24.237 15.5263 24.4335 15.5107C24.6299 15.495 24.8246 15.5573 24.9754 15.684C25.1263 15.8107 25.2212 15.9918 25.2397 16.1879C25.2582 16.3841 25.1988 16.5797 25.0742 16.7323V16.7323Z" fill="#23C653"/>
</svg>
