<svg width="123" height="99" viewBox="0 0 123 99" fill="none" xmlns="http://www.w3.org/2000/svg">
<path d="M109.178 37.4578H109.139L86.9359 46.9386L56.5577 59.9103C56.439 59.9602 56.3116 59.9863 56.1828 59.9869C56.0541 59.9876 55.9264 59.9629 55.8072 59.9142L24.4658 46.9115L1.71741 37.4733L1.68266 37.4578H1.64395C1.28501 37.4582 0.940883 37.601 0.687075 37.8548C0.433267 38.1086 0.290498 38.4527 0.2901 38.8117V97.607C0.290498 97.966 0.433267 98.3101 0.687075 98.5639C0.940883 98.8177 1.28501 98.9605 1.64395 98.9609H109.178C109.537 98.9605 109.881 98.8177 110.134 98.5639C110.388 98.3101 110.531 97.966 110.531 97.607V38.8117C110.531 38.4527 110.388 38.1086 110.134 37.8548C109.881 37.601 109.537 37.4582 109.178 37.4578V37.4578Z" fill="white"/>
<path d="M109.274 37.8446C109.235 37.8447 109.196 37.8326 109.164 37.81L55.6755 0.559334C55.5127 0.446501 55.3193 0.386199 55.1213 0.386537C54.9232 0.386874 54.73 0.447833 54.5676 0.56122L1.46479 37.8096C1.42278 37.8388 1.37089 37.8502 1.3205 37.8413C1.2701 37.8324 1.22531 37.8038 1.19592 37.7619C1.16653 37.72 1.15496 37.6682 1.16371 37.6177C1.17247 37.5673 1.20083 37.5224 1.24263 37.4929L54.3455 0.244495C54.5729 0.0857778 54.8434 0.000457655 55.1206 1.83594e-06C55.3979 -0.000453983 55.6687 0.0839766 55.8966 0.241946L109.385 37.4925C109.418 37.516 109.444 37.5497 109.457 37.5887C109.47 37.6277 109.471 37.6699 109.459 37.7092C109.446 37.7485 109.422 37.7828 109.389 37.8072C109.355 37.8315 109.315 37.8447 109.274 37.8446H109.274Z" fill="#3F3D56"/>
<path d="M4.49924 39.1652L55.1737 1.60905L106.233 41.8374L57.7847 70.558L31.4816 64.5627L4.49924 39.1652Z" fill="#E6E6E6"/>
<path d="M33.7019 88.2977H8.66742C8.35722 88.2982 8.05955 88.1754 7.83988 87.9564C7.62021 87.7373 7.49655 87.44 7.4961 87.1298C7.49564 86.8196 7.61842 86.522 7.83743 86.3023C8.05645 86.0826 8.35377 85.959 8.66397 85.9585H33.7019C34.0121 85.9581 34.3098 86.0808 34.5295 86.2999C34.7491 86.5189 34.8728 86.8162 34.8733 87.1264C34.8737 87.4366 34.7509 87.7343 34.5319 87.9539C34.3129 88.1736 34.0156 88.2972 33.7054 88.2977H33.7019Z" fill="#3777FF"/>
<path d="M17.6493 83.2692H8.66749C8.35743 83.2694 8.05997 83.1465 7.84048 82.9275C7.62099 82.7085 7.49744 82.4113 7.49698 82.1013C7.49652 81.7912 7.61919 81.4937 7.83804 81.274C8.05688 81.0544 8.35398 80.9306 8.66404 80.93H17.6493C17.803 80.9296 17.9552 80.9596 18.0973 81.0181C18.2394 81.0766 18.3685 81.1626 18.4774 81.271C18.5862 81.3795 18.6726 81.5083 18.7317 81.6502C18.7907 81.7921 18.8212 81.9442 18.8215 82.0978C18.8217 82.2515 18.7916 82.4037 18.733 82.5457C18.6744 82.6878 18.5883 82.8169 18.4798 82.9256C18.3713 83.0344 18.2424 83.1208 18.1005 83.1797C17.9586 83.2386 17.8064 83.269 17.6528 83.2692H17.6493Z" fill="#3777FF"/>
<path d="M55.8865 60.0834C55.6963 60.0836 55.5078 60.0466 55.3316 59.9747L24.079 47.007V6.41617C24.0795 6.05724 24.2222 5.71313 24.476 5.45933C24.7298 5.20552 25.0739 5.06275 25.4329 5.06233H85.3887C85.7476 5.06275 86.0917 5.20552 86.3455 5.45933C86.5993 5.71313 86.7421 6.05724 86.7425 6.41617V47.0354L86.6838 47.0605L56.4583 59.9683C56.2773 60.0444 56.0829 60.0835 55.8865 60.0834V60.0834Z" fill="white"/>
<path d="M55.8865 60.18C55.6836 60.1802 55.4826 60.1409 55.2947 60.0642L23.9823 47.0716V6.41616C23.9827 6.03159 24.1357 5.66289 24.4076 5.39095C24.6795 5.11902 25.0482 4.96606 25.4328 4.96562H85.3886C85.7732 4.96606 86.1419 5.11902 86.4138 5.39095C86.6858 5.66289 86.8387 6.03159 86.8392 6.41616V47.0992L56.4962 60.0572C56.3032 60.1384 56.0959 60.1802 55.8865 60.18V60.18ZM24.3691 46.8132L55.4423 59.7066C55.7321 59.8242 56.0567 59.8222 56.3451 59.7012L86.4524 46.8438V6.41616C86.452 6.13415 86.3398 5.86378 86.1404 5.66437C85.941 5.46496 85.6707 5.35279 85.3886 5.35245H25.4328C25.1508 5.35279 24.8804 5.46496 24.681 5.66437C24.4816 5.86378 24.3694 6.13415 24.3691 6.41616L24.3691 46.8132Z" fill="#3F3D56"/>
<path d="M108.887 37.4578H108.849L86.6458 46.9386L56.2676 59.9103C56.1489 59.9602 56.0215 59.9863 55.8927 59.9869C55.7639 59.9876 55.6363 59.9629 55.5171 59.9142L24.1757 46.9115L1.42732 37.4733L1.39256 37.4578H1.35383C0.994893 37.4582 0.650783 37.601 0.396975 37.8548C0.143167 38.1086 0.00039787 38.4527 0 38.8117V97.607C0.00039787 97.966 0.143167 98.3101 0.396975 98.5639C0.650783 98.8177 0.994893 98.9605 1.35383 98.9609H108.887C109.246 98.9605 109.591 98.8177 109.844 98.5639C110.098 98.3101 110.241 97.966 110.241 97.607V38.8117C110.241 38.4527 110.098 38.1086 109.844 37.8548C109.591 37.601 109.246 37.4582 108.887 37.4578V37.4578ZM109.855 97.607C109.854 97.8635 109.753 98.1094 109.571 98.2907C109.39 98.472 109.144 98.574 108.887 98.5741H1.35383C1.09739 98.574 0.85148 98.472 0.670149 98.2907C0.488818 98.1094 0.386917 97.8635 0.386815 97.607V38.8117C0.387166 38.5616 0.484151 38.3213 0.657524 38.1411C0.830897 37.9609 1.06722 37.8547 1.3171 37.8446L24.1757 47.3292L55.3683 60.272C55.7059 60.4093 56.0843 60.4073 56.4204 60.2662L86.6458 47.3583L108.926 37.8446C109.176 37.8554 109.411 37.9619 109.584 38.142C109.757 38.3221 109.854 38.562 109.855 38.8117V97.607Z" fill="#3F3D56"/>
<path d="M51.0211 20.2353H29.7465C29.3365 20.2347 28.9435 20.0715 28.6538 19.7814C28.3641 19.4913 28.2014 19.098 28.2014 18.6881C28.2014 18.2781 28.3641 17.8849 28.6538 17.5948C28.9435 17.3047 29.3365 17.1414 29.7465 17.1408H51.0211C51.4311 17.1414 51.8241 17.3047 52.1138 17.5948C52.4035 17.8849 52.5662 18.2781 52.5662 18.6881C52.5662 19.098 52.4035 19.4913 52.1138 19.7814C51.8241 20.0715 51.4311 20.2347 51.0211 20.2353V20.2353Z" fill="#3777FF"/>
<path d="M39.9969 13.6595H29.7464C29.336 13.6595 28.9425 13.4965 28.6523 13.2063C28.3621 12.9162 28.1991 12.5226 28.1991 12.1122C28.1991 11.7019 28.3621 11.3083 28.6523 11.0182C28.9425 10.728 29.336 10.565 29.7464 10.565H39.9969C40.4072 10.565 40.8008 10.728 41.091 11.0182C41.3811 11.3083 41.5441 11.7019 41.5441 12.1122C41.5441 12.5226 41.3811 12.9162 41.091 13.2063C40.8008 13.4965 40.4072 13.6595 39.9969 13.6595V13.6595Z" fill="#3777FF"/>
<path d="M71.3226 35.7078H38.8304C38.4205 35.7072 38.0275 35.5439 37.7378 35.2538C37.4481 34.9637 37.2854 34.5705 37.2854 34.1605C37.2854 33.7506 37.4481 33.3573 37.7378 33.0672C38.0275 32.7771 38.4205 32.6139 38.8304 32.6133H71.3226C71.7326 32.6139 72.1256 32.7771 72.4153 33.0672C72.705 33.3573 72.8677 33.7506 72.8677 34.1605C72.8677 34.5705 72.705 34.9637 72.4153 35.2538C72.1256 35.5439 71.7326 35.7072 71.3226 35.7078V35.7078Z" fill="#CCCCCC"/>
<path d="M71.3225 42.8638H38.8304C38.42 42.8638 38.0265 42.7008 37.7363 42.4106C37.4461 42.1205 37.2831 41.7269 37.2831 41.3166C37.2831 40.9062 37.4461 40.5126 37.7363 40.2225C38.0265 39.9323 38.42 39.7693 38.8304 39.7693H71.3225C71.7329 39.7693 72.1264 39.9323 72.4166 40.2225C72.7068 40.5126 72.8698 40.9062 72.8698 41.3166C72.8698 41.7269 72.7068 42.1205 72.4166 42.4106C72.1264 42.7008 71.7329 42.8638 71.3225 42.8638V42.8638Z" fill="#CCCCCC"/>
<path d="M108.288 52.7308C116.413 52.7308 123 46.1439 123 38.0185C123 29.8931 116.413 23.3062 108.288 23.3062C100.162 23.3062 93.5754 29.8931 93.5754 38.0185C93.5754 46.1439 100.162 52.7308 108.288 52.7308Z" fill="#3777FF"/>
<path d="M106.886 44.2291L102.483 38.567L105.043 36.5753L107.128 39.2562L114.172 31.8207L116.527 34.0522L106.886 44.2291Z" fill="white"/>
</svg>
