<svg width="584" height="409" viewBox="0 0 584 409" fill="none" xmlns="http://www.w3.org/2000/svg">
<g clip-path="url(#clip0)">
<path d="M515.73 398.718L505.96 398.717L501.312 361.007L515.732 361.007L515.73 398.718Z" fill="#FFB8B8"/>
<path d="M518.222 408.195L486.718 408.194V407.795C486.718 404.541 488.011 401.42 490.31 399.119C492.61 396.818 495.728 395.525 498.98 395.525H498.981L518.222 395.526L518.222 408.195Z" fill="#2F2E41"/>
<path d="M558.852 374.682L552.51 382.119L520.825 361.179L530.186 350.203L558.852 374.682Z" fill="#FFB8B8"/>
<path d="M567.674 378.937L547.224 402.917L546.921 402.658C544.447 400.546 542.914 397.537 542.657 394.293C542.4 391.049 543.442 387.835 545.553 385.36L545.553 385.359L558.043 370.713L567.674 378.937Z" fill="#2F2E41"/>
<path d="M446.357 213.261L443.316 241.329L566.259 239.574L512.643 152.152L468.866 150.579L446.357 213.261Z" fill="#2F2E41"/>
<path opacity="0.28" d="M446.357 213.261L443.316 241.329L566.259 239.574L512.643 152.152L468.866 150.579L446.357 213.261Z" fill="black"/>
<path d="M470.533 218.08L466.192 243.761V266.717L501.187 278.147C501.187 278.147 497.09 367.311 502.552 372.99L502.418 386.699L517.684 387.394L517.809 377.746L524.281 305.629L528.093 252.68L521.912 212.537L470.533 218.08Z" fill="#2F2E41"/>
<path d="M497.645 240.187L466.192 266.717C466.192 266.717 464.351 314.583 469.026 320.196C473.041 325.018 525.26 366.604 525.26 366.604C525.26 366.604 534.541 375.123 539.742 375.259C544.943 375.395 550.992 364.478 550.992 364.478L538.947 355.321C538.947 355.321 507.742 326.173 498.476 314.583C494.737 309.905 494.737 309.437 494.737 309.437L496.014 289.984L508.869 253.882L497.645 240.187Z" fill="#2F2E41"/>
<path d="M464.252 113.107L450.691 111.853L438.391 113.904L412.345 113.912L410.126 132.803L433.895 138.125L439.687 135.285L463.832 144.49L464.252 113.107Z" fill="#2F2E41"/>
<path d="M480.449 113.048C480.449 113.048 509.228 110.349 515.773 115.495C522.317 120.64 536.341 222.617 536.341 222.617L480.449 225.774L470.429 218.875L473.273 167.964L480.449 113.048Z" fill="#CCCCCC"/>
<path d="M489.233 112.412L457.487 113.11L427.889 246.942L451.263 252.088L489.233 112.412Z" fill="#2F2E41"/>
<path d="M511.801 111.281L536.808 119.113L535.388 174.101L566.259 239.842L529.967 243.668L501.281 172.679L511.801 111.281Z" fill="#2F2E41"/>
<path d="M553.038 246.52C553.914 245.748 554.611 244.792 555.079 243.721C555.547 242.65 555.774 241.49 555.745 240.321C555.716 239.153 555.432 238.005 554.912 236.959C554.392 235.912 553.649 234.993 552.735 234.265L557.766 216.702L547.846 211.04L541.09 235.941C539.969 237.558 539.48 239.531 539.716 241.484C539.952 243.438 540.895 245.237 542.368 246.541C543.841 247.845 545.74 248.563 547.707 248.559C549.673 248.555 551.57 247.83 553.038 246.52Z" fill="#FFB8B8"/>
<path d="M522.317 120.641L537.114 119.356C537.114 119.356 550.398 133.259 553.42 144.024C556.442 154.789 559.714 188.469 559.714 188.469L558.349 237.74L541.053 225.987L539.893 183.607L522.317 120.641Z" fill="#2F2E41"/>
<path d="M518.747 95.8756C524.304 85.7041 520.568 72.951 510.404 67.3908C500.239 61.8305 487.495 65.5687 481.938 75.7402C476.382 85.9117 480.117 98.6648 490.282 104.225C500.447 109.785 513.191 106.047 518.747 95.8756Z" fill="#FFB8B8"/>
<path d="M498.005 77.0454C495.253 76.409 492.396 77.1142 489.609 77.5713C486.821 78.0284 483.75 78.1791 481.392 76.6228C479.651 75.4735 478.58 73.5722 477.575 71.7432C477.155 71.0901 476.876 70.3569 476.754 69.5902C476.635 68.2376 477.495 67.0034 478.408 65.9991C482.649 61.3338 488.847 58.7804 495.098 57.9693C500.252 57.2005 505.519 57.8441 510.337 59.8315C515.082 61.9139 519.161 65.7275 521.026 70.5643C521.885 73.0398 522.422 75.6159 522.622 78.2288C522.904 80.1512 522.94 82.1017 522.73 84.0333C522.479 85.4652 522.103 86.8723 521.606 88.2386L518.516 97.5754C518.294 98.4577 517.879 99.2798 517.301 99.9822C517.004 100.326 516.603 100.565 516.16 100.662C515.716 100.759 515.253 100.71 514.839 100.522C515.086 99.5077 515.124 98.4537 514.95 97.4245C514.853 96.9116 514.605 96.4393 514.238 96.0687C513.871 95.698 513.401 95.4459 512.889 95.3448C511.75 95.2239 510.777 96.1074 509.697 96.4879C509.202 96.6346 508.684 96.6824 508.171 96.6285C507.658 96.5747 507.161 96.4203 506.707 96.1741C506.254 95.9279 505.854 95.5948 505.529 95.1938C505.204 94.7928 504.962 94.3317 504.815 93.8369C504.786 93.7372 504.76 93.6364 504.739 93.5345C504.568 92.4671 504.854 91.3243 504.45 90.3219C503.976 89.1474 502.72 88.532 501.776 87.6881C500.915 86.8929 500.299 85.8681 500 84.7344C499.701 83.6006 499.731 82.405 500.088 81.288C500.34 80.511 501.054 80.1577 500.911 79.265C500.724 78.0939 498.998 77.2752 498.005 77.0454Z" fill="#2F2E41"/>
<path d="M264.81 165.77H0V0H264.81V165.77Z" fill="white"/>
<path d="M264.81 165.77H0V0H264.81V165.77ZM1.20918 164.56H263.601V1.21H1.20918V164.56Z" fill="#3F3D56"/>
<path d="M232.464 395.368H81.3174V229.598H232.464V395.368Z" fill="white"/>
<path d="M232.464 395.368H81.3174V229.598H232.464V395.368ZM82.5266 394.158H231.255V230.808H82.5266V394.158Z" fill="#3F3D56"/>
<path d="M211.908 379.711H180.47V380.987H211.908V379.711Z" fill="#3F3D56"/>
<path d="M211.908 383.538H180.47V384.813H211.908V383.538Z" fill="#3F3D56"/>
<path d="M211.908 387.364H180.47V388.639H211.908V387.364Z" fill="#3F3D56"/>
<path d="M156.891 259.243V272.553C164.783 272.553 172.497 274.895 179.059 279.282C185.621 283.67 190.736 289.906 193.756 297.202C196.776 304.499 197.566 312.527 196.027 320.273C194.487 328.018 190.687 335.133 185.106 340.718L194.511 350.129C201.952 342.683 207.019 333.197 209.072 322.869C211.125 312.542 210.071 301.837 206.045 292.109C202.018 282.38 195.198 274.065 186.449 268.215C177.7 262.365 167.413 259.243 156.891 259.243Z" fill="#E6E6E6"/>
<path d="M194.511 350.129L185.106 340.718C178.284 347.546 169.22 351.668 159.593 352.321C149.967 352.975 140.43 350.114 132.749 344.27L124.698 354.87C134.941 362.66 147.657 366.472 160.493 365.601C173.329 364.729 185.414 359.233 194.511 350.129Z" fill="#575A89"/>
<path d="M116.988 312.483C116.988 307.239 118.02 302.047 120.025 297.202C122.031 292.358 124.97 287.956 128.675 284.248C132.381 280.54 136.779 277.599 141.621 275.592C146.462 273.586 151.651 272.553 156.891 272.553V259.243C145.753 259.243 134.896 262.74 125.851 269.243C116.805 275.745 110.027 284.924 106.471 295.486C102.915 306.048 102.762 317.46 106.032 328.114C109.302 338.768 115.831 348.126 124.698 354.87L132.749 344.27C127.847 340.549 123.873 335.743 121.139 330.228C118.404 324.713 116.984 318.639 116.988 312.483Z" fill="#6C63FF"/>
<path d="M456.162 292.518H305.015V126.748H456.162V292.518Z" fill="white"/>
<path d="M456.162 292.518H305.015V126.748H456.162V292.518ZM306.224 291.308H454.953V127.958H306.224V291.308Z" fill="#3F3D56"/>
<path d="M353.986 228.085H326.78V271.645H353.986V228.085Z" fill="#575A89"/>
<path d="M393.285 198.44H366.078V271.645H393.285V198.44Z" fill="#E6E6E6"/>
<path d="M432.583 163.955H405.376V271.645H432.583V163.955Z" fill="#6C63FF"/>
<path d="M441.652 272.856H319.525V146.41H320.734V271.645H441.652V272.856Z" fill="#3F3D56"/>
<path d="M412.207 131.161C416.806 131.161 420.535 127.43 420.535 122.828C420.535 118.226 416.806 114.495 412.207 114.495C407.609 114.495 403.88 118.226 403.88 122.828C403.88 127.43 407.609 131.161 412.207 131.161Z" fill="#FFB8B8"/>
<path d="M583.306 409H453.542C453.358 409 453.182 408.927 453.051 408.797C452.921 408.666 452.848 408.49 452.848 408.306C452.848 408.121 452.921 407.945 453.051 407.815C453.182 407.684 453.358 407.611 453.542 407.611H583.306C583.49 407.611 583.666 407.684 583.797 407.815C583.927 407.945 584 408.121 584 408.306C584 408.49 583.927 408.666 583.797 408.797C583.666 408.927 583.49 409 583.306 409Z" fill="#CCCCCC"/>
<path d="M228.034 131.101H36.7758C36.617 131.101 36.4648 131.038 36.3526 130.926C36.2403 130.813 36.1773 130.661 36.1772 130.502V38.7697C36.1772 38.6109 36.2403 38.4585 36.3525 38.3462C36.4648 38.2339 36.617 38.1708 36.7758 38.1708C36.9345 38.1708 37.0868 38.2339 37.199 38.3462C37.3113 38.4585 37.3743 38.6109 37.3743 38.7697V129.903H228.034C228.113 129.903 228.191 129.918 228.264 129.948C228.337 129.978 228.403 130.022 228.459 130.078C228.514 130.134 228.559 130.2 228.589 130.273C228.619 130.345 228.635 130.423 228.635 130.502C228.635 130.581 228.619 130.659 228.589 130.732C228.559 130.805 228.514 130.871 228.459 130.927C228.403 130.982 228.337 131.026 228.264 131.056C228.191 131.086 228.113 131.101 228.034 131.101Z" fill="#3F3D56"/>
<path d="M77.6393 124.513H60.2436C59.7725 124.512 59.3209 124.325 58.9878 123.991C58.6547 123.658 58.4674 123.206 58.4668 122.735V98.7384C58.4674 98.2671 58.6547 97.8152 58.9878 97.4819C59.3209 97.1486 59.7725 96.9611 60.2436 96.9606H77.6393C78.1103 96.9611 78.5619 97.1486 78.895 97.4819C79.2281 97.8152 79.4155 98.2671 79.4161 98.7384V122.735C79.4155 123.206 79.2281 123.658 78.895 123.991C78.5619 124.325 78.1103 124.512 77.6393 124.513Z" fill="#6C63FF"/>
<path d="M109.362 124.513H91.9667C91.4957 124.512 91.0441 124.325 90.711 123.991C90.3779 123.658 90.1905 123.206 90.1899 122.735V75.9781C90.1905 75.5067 90.3779 75.0548 90.711 74.7215C91.0441 74.3882 91.4957 74.2007 91.9667 74.2002H109.362C109.833 74.2007 110.285 74.3882 110.618 74.7215C110.951 75.0548 111.139 75.5067 111.139 75.9781V122.735C111.139 123.206 110.951 123.658 110.618 123.991C110.285 124.325 109.833 124.512 109.362 124.513Z" fill="#6C63FF"/>
<path d="M141.086 124.513H123.69C123.219 124.512 122.767 124.325 122.434 123.991C122.101 123.658 121.914 123.206 121.913 122.735V98.7384C121.914 98.2671 122.101 97.8152 122.434 97.4819C122.767 97.1486 123.219 96.9611 123.69 96.9606H141.086C141.557 96.9611 142.008 97.1486 142.341 97.4819C142.674 97.8152 142.862 98.2671 142.862 98.7384V122.735C142.862 123.206 142.674 123.658 142.341 123.991C142.008 124.325 141.557 124.512 141.086 124.513Z" fill="#6C63FF"/>
<path d="M172.809 124.513H155.413C154.953 124.523 154.507 124.349 154.174 124.031C153.841 123.713 153.648 123.276 153.636 122.815V66.9131C153.648 66.4525 153.841 66.0152 154.174 65.697C154.507 65.3789 154.953 65.2058 155.413 65.2157H172.809C173.269 65.2058 173.715 65.3789 174.048 65.697C174.381 66.0152 174.574 66.4525 174.586 66.9131V122.815C174.574 123.276 174.381 123.713 174.048 124.031C173.715 124.349 173.269 124.523 172.809 124.513Z" fill="#6C63FF"/>
<path d="M204.532 124.513H187.136C186.665 124.512 186.214 124.325 185.88 123.991C185.547 123.658 185.36 123.206 185.359 122.735V50.8217C185.36 50.3503 185.547 49.8984 185.88 49.5651C186.214 49.2318 186.665 49.0443 187.136 49.0438H204.532C205.003 49.0443 205.455 49.2318 205.788 49.5651C206.121 49.8984 206.308 50.3503 206.309 50.8217V122.735C206.308 123.206 206.121 123.658 205.788 123.991C205.455 124.325 205.003 124.512 204.532 124.513Z" fill="#6C63FF"/>
<path d="M68.9414 89.7731C70.9248 89.7731 72.5327 88.1641 72.5327 86.1793C72.5327 84.1946 70.9248 82.5856 68.9414 82.5856C66.958 82.5856 65.3501 84.1946 65.3501 86.1793C65.3501 88.1641 66.958 89.7731 68.9414 89.7731Z" fill="#3F3D56"/>
<path d="M100.665 66.4137C102.648 66.4137 104.256 64.8047 104.256 62.82C104.256 60.8352 102.648 59.2262 100.665 59.2262C98.6811 59.2262 97.0732 60.8352 97.0732 62.82C97.0732 64.8047 98.6811 66.4137 100.665 66.4137Z" fill="#3F3D56"/>
<path d="M132.388 89.7731C134.371 89.7731 135.979 88.1641 135.979 86.1793C135.979 84.1946 134.371 82.5856 132.388 82.5856C130.404 82.5856 128.796 84.1946 128.796 86.1793C128.796 88.1641 130.404 89.7731 132.388 89.7731Z" fill="#3F3D56"/>
<path d="M164.111 55.0335C166.094 55.0335 167.702 53.4245 167.702 51.4397C167.702 49.4549 166.094 47.8459 164.111 47.8459C162.127 47.8459 160.52 49.4549 160.52 51.4397C160.52 53.4245 162.127 55.0335 164.111 55.0335Z" fill="#3F3D56"/>
<path d="M195.834 41.8563C197.818 41.8563 199.426 40.2474 199.426 38.2626C199.426 36.2778 197.818 34.6688 195.834 34.6688C193.851 34.6688 192.243 36.2778 192.243 38.2626C192.243 40.2474 193.851 41.8563 195.834 41.8563Z" fill="#3F3D56"/>
<path d="M132.463 86.9844L100.665 63.1506L69.3 86.6587L68.5825 85.6997L100.665 61.6535L132.312 85.3741L163.761 50.9354L163.887 50.8841L195.61 38.0933L196.058 39.205L164.461 51.9444L132.463 86.9844Z" fill="#3F3D56"/>
</g>
<defs>
<clipPath id="clip0">
<rect width="584" height="409" fill="white"/>
</clipPath>
</defs>
</svg>
