<svg width="24" height="24" viewBox="0 0 24 24" fill="none" xmlns="http://www.w3.org/2000/svg">
<path d="M7.56377 17.4334H13.7867L13.2681 23.9992H7.02704C6.05872 24.0126 5.09798 23.8483 4.20699 23.5169C3.316 23.1855 2.51462 22.6945 1.8547 22.0756C1.19479 21.4567 0.691049 20.7237 0.376084 19.924C0.061119 19.1243 -0.0580532 18.2758 0.0262799 17.4334L0.788585 8.15069H8.30792L7.56377 17.4334ZM24 0H8.96133C6.92373 0.0117676 4.96731 0.698825 3.48777 1.9222C1.99026 3.13135 1.07149 4.79006 0.915636 6.56583H15.9543C17.99 6.54029 19.9419 5.85364 21.4294 4.63977C22.9169 3.42589 23.8333 1.77181 24 0V0ZM16.0554 11.7732L15.638 16.9987L15.065 23.9992H22.0657L22.5558 17.8862C22.6337 17.1033 22.5229 16.3148 22.2306 15.5715C21.9382 14.8282 21.4708 14.1467 20.8584 13.5707C20.246 12.9948 19.5022 12.5373 18.675 12.2277C17.8477 11.9181 16.9554 11.7633 16.0554 11.7732V11.7732Z" fill="url(#paint0_linear)"/>
<defs>
<linearGradient id="paint0_linear" x1="21.1654" y1="24.6614" x2="0.134191" y2="0.0705362" gradientUnits="userSpaceOnUse">
<stop offset="0.140705" stop-color="#1762F5"/>
<stop offset="0.823359" stop-color="#2DA4FB"/>
</linearGradient>
</defs>
</svg>
