<svg width="40" height="40" viewBox="0 0 40 40" fill="none" xmlns="http://www.w3.org/2000/svg">
<circle cx="20" cy="20" r="20" fill="#FFFCD7"/>
<path d="M27.5833 15H25.4167C25.4167 12.24 22.99 10 20 10C17.01 10 14.5833 12.24 14.5833 15H12.4167C11.225 15 10.2608 15.9 10.2608 17L10.25 29C10.25 30.1 11.225 31 12.4167 31H27.5833C28.775 31 29.75 30.1 29.75 29V17C29.75 15.9 28.775 15 27.5833 15ZM20 12C21.7983 12 23.25 13.34 23.25 15H16.75C16.75 13.34 18.2017 12 20 12ZM20 22C17.01 22 14.5833 19.76 14.5833 17H16.75C16.75 18.66 18.2017 20 20 20C21.7983 20 23.25 18.66 23.25 17H25.4167C25.4167 19.76 22.99 22 20 22Z" fill="#FB9C2D"/>
</svg>
